# xmcd CD database file
#
# Track frame offsets:
#	150
#	23329
#	38222
#	70846
#	89404
#	112552
#	127474
#	156585
#	175085
#	192410
#	206153
#	220234
#	234526
#	245649
#	274416
#	302786
#
# Disc length: 4344 seconds
#
# Revision: 0
# Processed by: cddbd v1.5.2PL0 Copyright (c) Steve Scherf et al.
# Submitted via: CDex 1.51
#
DISCID=ec10f610
DTITLE=Peps Persson - Blues
DYEAR=2007
DGENRE=Blues
TTITLE0=01 Dimples 
TTITLE1=02 Min trollmoj funkar
TTITLE2=03 Onådens år
TTITLE3=04 Hokus Pokus man
TTITLE4=05 Fem långa år
TTITLE5=06 Du e så fin
TTITLE6=07 Liden rö tocke
TTITLE7=08 Samma lea snea blues
TTITLE8=09 Himlen gråter
TTITLE9=10 När solen sjunkit
TTITLE10=11 Vakna törnrosa
TTITLE11=12 Born in the country
TTITLE12=13 Djupt i mitt hjärta
TTITLE13=14 Blues with a feeling
TTITLE14=15 Sad night is falling
TTITLE15=16 Copenhagen blues
EXTD=YEAR: 2007
EXTT0=
EXTT1=
EXTT2=
EXTT3=
EXTT4=
EXTT5=
EXTT6=
EXTT7=
EXTT8=
EXTT9=
EXTT10=
EXTT11=
EXTT12=
EXTT13=
EXTT14=
EXTT15=
PLAYORDER=
